<mxfile host="app.diagrams.net" agent="Mozilla/5.0 (Windows NT 10.0; Win64; x64) AppleWebKit/537.36 (KHTML, like Gecko) Chrome/131.0.0.0 Safari/537.36" version="24.9.1">
  <diagram id="C5RBs43oDa-KdzZeNtuy" name="Page-1">
    <mxGraphModel dx="1613" dy="653" grid="1" gridSize="10" guides="1" tooltips="1" connect="1" arrows="1" fold="1" page="1" pageScale="1" pageWidth="827" pageHeight="1169" math="0" shadow="0">
      <root>
        <mxCell id="WIyWlLk6GJQsqaUBKTNV-0" />
        <mxCell id="WIyWlLk6GJQsqaUBKTNV-1" parent="WIyWlLk6GJQsqaUBKTNV-0" />
        <mxCell id="Vs8sOGnxgAwdF0Xm_5Ge-0" value="&lt;b&gt;Admin&lt;/b&gt;" style="rounded=0;whiteSpace=wrap;html=1;" vertex="1" parent="WIyWlLk6GJQsqaUBKTNV-1">
          <mxGeometry x="40" y="262.5" width="90" height="30" as="geometry" />
        </mxCell>
        <mxCell id="Vs8sOGnxgAwdF0Xm_5Ge-1" value="" style="endArrow=none;html=1;rounded=0;" edge="1" parent="WIyWlLk6GJQsqaUBKTNV-1">
          <mxGeometry width="50" height="50" relative="1" as="geometry">
            <mxPoint x="130" y="277.13" as="sourcePoint" />
            <mxPoint x="170" y="277.63" as="targetPoint" />
          </mxGeometry>
        </mxCell>
        <mxCell id="Vs8sOGnxgAwdF0Xm_5Ge-2" value="manages" style="rhombus;whiteSpace=wrap;html=1;" vertex="1" parent="WIyWlLk6GJQsqaUBKTNV-1">
          <mxGeometry x="170" y="250" width="60" height="55" as="geometry" />
        </mxCell>
        <mxCell id="Vs8sOGnxgAwdF0Xm_5Ge-3" value="&lt;b&gt;User&lt;/b&gt;" style="rounded=0;whiteSpace=wrap;html=1;" vertex="1" parent="WIyWlLk6GJQsqaUBKTNV-1">
          <mxGeometry x="270" y="262.5" width="90" height="30" as="geometry" />
        </mxCell>
        <mxCell id="Vs8sOGnxgAwdF0Xm_5Ge-5" value="M" style="text;html=1;align=center;verticalAlign=middle;whiteSpace=wrap;rounded=0;" vertex="1" parent="WIyWlLk6GJQsqaUBKTNV-1">
          <mxGeometry x="220" y="250" width="60" height="30" as="geometry" />
        </mxCell>
        <mxCell id="Vs8sOGnxgAwdF0Xm_5Ge-6" value="1" style="text;html=1;align=center;verticalAlign=middle;whiteSpace=wrap;rounded=0;" vertex="1" parent="WIyWlLk6GJQsqaUBKTNV-1">
          <mxGeometry x="120" y="250" width="60" height="30" as="geometry" />
        </mxCell>
        <mxCell id="Vs8sOGnxgAwdF0Xm_5Ge-7" value="" style="endArrow=none;html=1;rounded=0;" edge="1" parent="WIyWlLk6GJQsqaUBKTNV-1">
          <mxGeometry width="50" height="50" relative="1" as="geometry">
            <mxPoint x="320" y="262.5" as="sourcePoint" />
            <mxPoint x="320" y="232.5" as="targetPoint" />
          </mxGeometry>
        </mxCell>
        <mxCell id="Vs8sOGnxgAwdF0Xm_5Ge-9" value="follows" style="rhombus;whiteSpace=wrap;html=1;" vertex="1" parent="WIyWlLk6GJQsqaUBKTNV-1">
          <mxGeometry x="290" y="177.5" width="60" height="55" as="geometry" />
        </mxCell>
        <mxCell id="Vs8sOGnxgAwdF0Xm_5Ge-10" value="" style="endArrow=none;html=1;rounded=0;" edge="1" parent="WIyWlLk6GJQsqaUBKTNV-1">
          <mxGeometry width="50" height="50" relative="1" as="geometry">
            <mxPoint x="319.76" y="177.5" as="sourcePoint" />
            <mxPoint x="319.76" y="147.5" as="targetPoint" />
          </mxGeometry>
        </mxCell>
        <mxCell id="Vs8sOGnxgAwdF0Xm_5Ge-11" value="&lt;b&gt;Artist&lt;/b&gt;" style="rounded=0;whiteSpace=wrap;html=1;" vertex="1" parent="WIyWlLk6GJQsqaUBKTNV-1">
          <mxGeometry x="275" y="117.5" width="90" height="30" as="geometry" />
        </mxCell>
        <mxCell id="Vs8sOGnxgAwdF0Xm_5Ge-12" value="1" style="text;html=1;align=center;verticalAlign=middle;whiteSpace=wrap;rounded=0;" vertex="1" parent="WIyWlLk6GJQsqaUBKTNV-1">
          <mxGeometry x="330" y="232.5" width="60" height="30" as="geometry" />
        </mxCell>
        <mxCell id="Vs8sOGnxgAwdF0Xm_5Ge-13" value="M" style="text;html=1;align=center;verticalAlign=middle;whiteSpace=wrap;rounded=0;" vertex="1" parent="WIyWlLk6GJQsqaUBKTNV-1">
          <mxGeometry x="320" y="40" width="60" height="30" as="geometry" />
        </mxCell>
        <mxCell id="Vs8sOGnxgAwdF0Xm_5Ge-17" value="" style="endArrow=none;html=1;rounded=0;entryX=0;entryY=0.5;entryDx=0;entryDy=0;exitX=1;exitY=0.5;exitDx=0;exitDy=0;" edge="1" parent="WIyWlLk6GJQsqaUBKTNV-1" source="Vs8sOGnxgAwdF0Xm_5Ge-18" target="Vs8sOGnxgAwdF0Xm_5Ge-11">
          <mxGeometry width="50" height="50" relative="1" as="geometry">
            <mxPoint x="250" y="44.88" as="sourcePoint" />
            <mxPoint x="310" y="44.88" as="targetPoint" />
          </mxGeometry>
        </mxCell>
        <mxCell id="Vs8sOGnxgAwdF0Xm_5Ge-18" value="manages" style="rhombus;whiteSpace=wrap;html=1;" vertex="1" parent="WIyWlLk6GJQsqaUBKTNV-1">
          <mxGeometry x="170" y="105" width="60" height="55" as="geometry" />
        </mxCell>
        <mxCell id="Vs8sOGnxgAwdF0Xm_5Ge-19" value="" style="endArrow=none;html=1;rounded=0;entryX=0;entryY=0.5;entryDx=0;entryDy=0;" edge="1" parent="WIyWlLk6GJQsqaUBKTNV-1" source="Vs8sOGnxgAwdF0Xm_5Ge-21">
          <mxGeometry width="50" height="50" relative="1" as="geometry">
            <mxPoint x="135" y="132.26" as="sourcePoint" />
            <mxPoint x="170" y="132.38" as="targetPoint" />
          </mxGeometry>
        </mxCell>
        <mxCell id="Vs8sOGnxgAwdF0Xm_5Ge-22" value="" style="endArrow=none;html=1;rounded=0;entryX=0;entryY=0.5;entryDx=0;entryDy=0;" edge="1" parent="WIyWlLk6GJQsqaUBKTNV-1">
          <mxGeometry width="50" height="50" relative="1" as="geometry">
            <mxPoint x="365" y="132.26" as="sourcePoint" />
            <mxPoint x="400" y="132.38" as="targetPoint" />
          </mxGeometry>
        </mxCell>
        <mxCell id="Vs8sOGnxgAwdF0Xm_5Ge-23" value="" style="endArrow=none;html=1;rounded=0;" edge="1" parent="WIyWlLk6GJQsqaUBKTNV-1">
          <mxGeometry width="50" height="50" relative="1" as="geometry">
            <mxPoint x="319.76" y="117.5" as="sourcePoint" />
            <mxPoint x="320" y="100" as="targetPoint" />
          </mxGeometry>
        </mxCell>
        <mxCell id="Vs8sOGnxgAwdF0Xm_5Ge-24" value="uploads" style="rhombus;whiteSpace=wrap;html=1;" vertex="1" parent="WIyWlLk6GJQsqaUBKTNV-1">
          <mxGeometry x="400" y="105" width="60" height="55" as="geometry" />
        </mxCell>
        <mxCell id="Vs8sOGnxgAwdF0Xm_5Ge-30" value="" style="endArrow=none;html=1;rounded=0;entryX=0;entryY=0.5;entryDx=0;entryDy=0;" edge="1" parent="WIyWlLk6GJQsqaUBKTNV-1">
          <mxGeometry width="50" height="50" relative="1" as="geometry">
            <mxPoint x="460" y="132.26" as="sourcePoint" />
            <mxPoint x="495" y="132.38" as="targetPoint" />
          </mxGeometry>
        </mxCell>
        <mxCell id="Vs8sOGnxgAwdF0Xm_5Ge-31" value="&lt;b&gt;Song&lt;/b&gt;" style="rounded=0;whiteSpace=wrap;html=1;" vertex="1" parent="WIyWlLk6GJQsqaUBKTNV-1">
          <mxGeometry x="490" y="117.5" width="90" height="30" as="geometry" />
        </mxCell>
        <mxCell id="Vs8sOGnxgAwdF0Xm_5Ge-254" value="" style="endArrow=none;html=1;rounded=0;entryX=0;entryY=0.5;entryDx=0;entryDy=0;" edge="1" parent="WIyWlLk6GJQsqaUBKTNV-1" target="Vs8sOGnxgAwdF0Xm_5Ge-3">
          <mxGeometry width="50" height="50" relative="1" as="geometry">
            <mxPoint x="230" y="277.13" as="sourcePoint" />
            <mxPoint x="265" y="277.25" as="targetPoint" />
          </mxGeometry>
        </mxCell>
        <mxCell id="Vs8sOGnxgAwdF0Xm_5Ge-255" value="" style="endArrow=none;html=1;rounded=0;entryX=0;entryY=0.5;entryDx=0;entryDy=0;" edge="1" parent="WIyWlLk6GJQsqaUBKTNV-1" target="Vs8sOGnxgAwdF0Xm_5Ge-21">
          <mxGeometry width="50" height="50" relative="1" as="geometry">
            <mxPoint x="135" y="132.26" as="sourcePoint" />
            <mxPoint x="170" y="132.38" as="targetPoint" />
          </mxGeometry>
        </mxCell>
        <mxCell id="Vs8sOGnxgAwdF0Xm_5Ge-21" value="&lt;b&gt;Manager&lt;/b&gt;" style="rounded=0;whiteSpace=wrap;html=1;" vertex="1" parent="WIyWlLk6GJQsqaUBKTNV-1">
          <mxGeometry x="50" y="117.5" width="90" height="30" as="geometry" />
        </mxCell>
        <mxCell id="Vs8sOGnxgAwdF0Xm_5Ge-256" value="releases" style="rhombus;whiteSpace=wrap;html=1;" vertex="1" parent="WIyWlLk6GJQsqaUBKTNV-1">
          <mxGeometry x="290" y="50" width="60" height="55" as="geometry" />
        </mxCell>
        <mxCell id="Vs8sOGnxgAwdF0Xm_5Ge-257" value="" style="endArrow=none;html=1;rounded=0;" edge="1" parent="WIyWlLk6GJQsqaUBKTNV-1">
          <mxGeometry width="50" height="50" relative="1" as="geometry">
            <mxPoint x="319.86" y="50" as="sourcePoint" />
            <mxPoint x="320.1" y="32.5" as="targetPoint" />
          </mxGeometry>
        </mxCell>
        <mxCell id="Vs8sOGnxgAwdF0Xm_5Ge-258" value="&lt;b&gt;Album&lt;/b&gt;" style="rounded=0;whiteSpace=wrap;html=1;" vertex="1" parent="WIyWlLk6GJQsqaUBKTNV-1">
          <mxGeometry x="275" y="10" width="90" height="30" as="geometry" />
        </mxCell>
        <mxCell id="Vs8sOGnxgAwdF0Xm_5Ge-259" value="&lt;blockquote style=&quot;margin: 0 0 0 40px; border: none; padding: 0px;&quot;&gt;1&lt;/blockquote&gt;" style="text;html=1;align=center;verticalAlign=middle;whiteSpace=wrap;rounded=0;" vertex="1" parent="WIyWlLk6GJQsqaUBKTNV-1">
          <mxGeometry x="110" y="105" width="60" height="30" as="geometry" />
        </mxCell>
        <mxCell id="Vs8sOGnxgAwdF0Xm_5Ge-260" value="M" style="text;html=1;align=center;verticalAlign=middle;whiteSpace=wrap;rounded=0;" vertex="1" parent="WIyWlLk6GJQsqaUBKTNV-1">
          <mxGeometry x="215" y="105" width="60" height="30" as="geometry" />
        </mxCell>
        <mxCell id="Vs8sOGnxgAwdF0Xm_5Ge-261" value="1" style="text;html=1;align=center;verticalAlign=middle;whiteSpace=wrap;rounded=0;" vertex="1" parent="WIyWlLk6GJQsqaUBKTNV-1">
          <mxGeometry x="320" y="90" width="60" height="30" as="geometry" />
        </mxCell>
        <mxCell id="Vs8sOGnxgAwdF0Xm_5Ge-262" value="M" style="text;html=1;align=center;verticalAlign=middle;whiteSpace=wrap;rounded=0;" vertex="1" parent="WIyWlLk6GJQsqaUBKTNV-1">
          <mxGeometry x="340" y="157.5" width="60" height="30" as="geometry" />
        </mxCell>
        <mxCell id="Vs8sOGnxgAwdF0Xm_5Ge-263" value="1" style="text;html=1;align=center;verticalAlign=middle;whiteSpace=wrap;rounded=0;" vertex="1" parent="WIyWlLk6GJQsqaUBKTNV-1">
          <mxGeometry x="360" y="105" width="60" height="30" as="geometry" />
        </mxCell>
        <mxCell id="Vs8sOGnxgAwdF0Xm_5Ge-264" value="M" style="text;html=1;align=center;verticalAlign=middle;whiteSpace=wrap;rounded=0;" vertex="1" parent="WIyWlLk6GJQsqaUBKTNV-1">
          <mxGeometry x="440" y="105" width="60" height="30" as="geometry" />
        </mxCell>
        <mxCell id="Vs8sOGnxgAwdF0Xm_5Ge-266" value="" style="endArrow=none;html=1;rounded=0;" edge="1" parent="WIyWlLk6GJQsqaUBKTNV-1">
          <mxGeometry width="50" height="50" relative="1" as="geometry">
            <mxPoint x="360" y="277.36" as="sourcePoint" />
            <mxPoint x="400" y="277.36" as="targetPoint" />
          </mxGeometry>
        </mxCell>
        <mxCell id="Vs8sOGnxgAwdF0Xm_5Ge-267" value="rates.by" style="rhombus;whiteSpace=wrap;html=1;" vertex="1" parent="WIyWlLk6GJQsqaUBKTNV-1">
          <mxGeometry x="525" y="407.5" width="60" height="55" as="geometry" />
        </mxCell>
        <mxCell id="Vs8sOGnxgAwdF0Xm_5Ge-269" value="" style="endArrow=none;html=1;rounded=0;" edge="1" parent="WIyWlLk6GJQsqaUBKTNV-1">
          <mxGeometry width="50" height="50" relative="1" as="geometry">
            <mxPoint x="460" y="277.26" as="sourcePoint" />
            <mxPoint x="500" y="277.26" as="targetPoint" />
          </mxGeometry>
        </mxCell>
        <mxCell id="Vs8sOGnxgAwdF0Xm_5Ge-270" value="&lt;b&gt;UserPlaylistRating&lt;/b&gt;" style="rounded=0;whiteSpace=wrap;html=1;" vertex="1" parent="WIyWlLk6GJQsqaUBKTNV-1">
          <mxGeometry x="500" y="262.5" width="110" height="30" as="geometry" />
        </mxCell>
        <mxCell id="Vs8sOGnxgAwdF0Xm_5Ge-271" value="" style="endArrow=none;html=1;rounded=0;" edge="1" parent="WIyWlLk6GJQsqaUBKTNV-1">
          <mxGeometry width="50" height="50" relative="1" as="geometry">
            <mxPoint x="320" y="330" as="sourcePoint" />
            <mxPoint x="320" y="292.5" as="targetPoint" />
          </mxGeometry>
        </mxCell>
        <mxCell id="Vs8sOGnxgAwdF0Xm_5Ge-272" value="rates" style="rhombus;whiteSpace=wrap;html=1;" vertex="1" parent="WIyWlLk6GJQsqaUBKTNV-1">
          <mxGeometry x="290" y="330" width="60" height="55" as="geometry" />
        </mxCell>
        <mxCell id="Vs8sOGnxgAwdF0Xm_5Ge-273" value="" style="endArrow=none;html=1;rounded=0;" edge="1" parent="WIyWlLk6GJQsqaUBKTNV-1">
          <mxGeometry width="50" height="50" relative="1" as="geometry">
            <mxPoint x="320" y="422.5" as="sourcePoint" />
            <mxPoint x="320" y="385" as="targetPoint" />
          </mxGeometry>
        </mxCell>
        <mxCell id="Vs8sOGnxgAwdF0Xm_5Ge-274" value="&lt;b&gt;Playlist&lt;/b&gt;" style="rounded=0;whiteSpace=wrap;html=1;" vertex="1" parent="WIyWlLk6GJQsqaUBKTNV-1">
          <mxGeometry x="275" y="420" width="90" height="30" as="geometry" />
        </mxCell>
        <mxCell id="Vs8sOGnxgAwdF0Xm_5Ge-275" value="" style="endArrow=none;html=1;rounded=0;entryX=0;entryY=0.5;entryDx=0;entryDy=0;" edge="1" parent="WIyWlLk6GJQsqaUBKTNV-1" target="Vs8sOGnxgAwdF0Xm_5Ge-267">
          <mxGeometry width="50" height="50" relative="1" as="geometry">
            <mxPoint x="365" y="435" as="sourcePoint" />
            <mxPoint x="520" y="430" as="targetPoint" />
          </mxGeometry>
        </mxCell>
        <mxCell id="Vs8sOGnxgAwdF0Xm_5Ge-276" value="rates" style="rhombus;whiteSpace=wrap;html=1;" vertex="1" parent="WIyWlLk6GJQsqaUBKTNV-1">
          <mxGeometry x="400" y="250" width="60" height="55" as="geometry" />
        </mxCell>
        <mxCell id="Vs8sOGnxgAwdF0Xm_5Ge-277" value="" style="endArrow=none;html=1;rounded=0;exitX=0.5;exitY=0;exitDx=0;exitDy=0;entryX=0.453;entryY=1.018;entryDx=0;entryDy=0;entryPerimeter=0;" edge="1" parent="WIyWlLk6GJQsqaUBKTNV-1">
          <mxGeometry width="50" height="50" relative="1" as="geometry">
            <mxPoint x="554.93" y="407.5" as="sourcePoint" />
            <mxPoint x="554.7599999999999" y="293.03999999999996" as="targetPoint" />
          </mxGeometry>
        </mxCell>
        <mxCell id="Vs8sOGnxgAwdF0Xm_5Ge-278" value="M" style="text;html=1;align=center;verticalAlign=middle;whiteSpace=wrap;rounded=0;" vertex="1" parent="WIyWlLk6GJQsqaUBKTNV-1">
          <mxGeometry x="330" y="292.5" width="60" height="30" as="geometry" />
        </mxCell>
        <mxCell id="Vs8sOGnxgAwdF0Xm_5Ge-279" value="M" style="text;html=1;align=center;verticalAlign=middle;whiteSpace=wrap;rounded=0;" vertex="1" parent="WIyWlLk6GJQsqaUBKTNV-1">
          <mxGeometry x="340" y="450" width="60" height="30" as="geometry" />
        </mxCell>
        <mxCell id="Vs8sOGnxgAwdF0Xm_5Ge-280" value="M" style="text;html=1;align=center;verticalAlign=middle;whiteSpace=wrap;rounded=0;" vertex="1" parent="WIyWlLk6GJQsqaUBKTNV-1">
          <mxGeometry x="560" y="342.5" width="60" height="30" as="geometry" />
        </mxCell>
        <mxCell id="Vs8sOGnxgAwdF0Xm_5Ge-281" value="1" style="text;html=1;align=center;verticalAlign=middle;whiteSpace=wrap;rounded=0;" vertex="1" parent="WIyWlLk6GJQsqaUBKTNV-1">
          <mxGeometry x="430" y="407.5" width="60" height="30" as="geometry" />
        </mxCell>
        <mxCell id="Vs8sOGnxgAwdF0Xm_5Ge-282" value="" style="endArrow=none;html=1;rounded=0;" edge="1" parent="WIyWlLk6GJQsqaUBKTNV-1">
          <mxGeometry width="50" height="50" relative="1" as="geometry">
            <mxPoint x="240" y="435" as="sourcePoint" />
            <mxPoint x="275" y="434.67" as="targetPoint" />
          </mxGeometry>
        </mxCell>
        <mxCell id="Vs8sOGnxgAwdF0Xm_5Ge-283" value="curates" style="rhombus;whiteSpace=wrap;html=1;" vertex="1" parent="WIyWlLk6GJQsqaUBKTNV-1">
          <mxGeometry x="180" y="407.5" width="60" height="55" as="geometry" />
        </mxCell>
        <mxCell id="Vs8sOGnxgAwdF0Xm_5Ge-284" value="" style="endArrow=none;html=1;rounded=0;" edge="1" parent="WIyWlLk6GJQsqaUBKTNV-1">
          <mxGeometry width="50" height="50" relative="1" as="geometry">
            <mxPoint x="145" y="435" as="sourcePoint" />
            <mxPoint x="180" y="434.67" as="targetPoint" />
          </mxGeometry>
        </mxCell>
        <mxCell id="Vs8sOGnxgAwdF0Xm_5Ge-285" value="&lt;b&gt;Curator&lt;/b&gt;" style="rounded=0;whiteSpace=wrap;html=1;" vertex="1" parent="WIyWlLk6GJQsqaUBKTNV-1">
          <mxGeometry x="60" y="420" width="90" height="30" as="geometry" />
        </mxCell>
        <mxCell id="Vs8sOGnxgAwdF0Xm_5Ge-286" value="1" style="text;html=1;align=center;verticalAlign=middle;whiteSpace=wrap;rounded=0;" vertex="1" parent="WIyWlLk6GJQsqaUBKTNV-1">
          <mxGeometry x="140" y="407.5" width="60" height="30" as="geometry" />
        </mxCell>
        <mxCell id="Vs8sOGnxgAwdF0Xm_5Ge-287" value="M" style="text;html=1;align=center;verticalAlign=middle;whiteSpace=wrap;rounded=0;" vertex="1" parent="WIyWlLk6GJQsqaUBKTNV-1">
          <mxGeometry x="220" y="407.5" width="60" height="30" as="geometry" />
        </mxCell>
        <mxCell id="Vs8sOGnxgAwdF0Xm_5Ge-288" value="" style="endArrow=none;html=1;rounded=0;" edge="1" parent="WIyWlLk6GJQsqaUBKTNV-1">
          <mxGeometry width="50" height="50" relative="1" as="geometry">
            <mxPoint x="320" y="487.5" as="sourcePoint" />
            <mxPoint x="320" y="450" as="targetPoint" />
          </mxGeometry>
        </mxCell>
        <mxCell id="Vs8sOGnxgAwdF0Xm_5Ge-289" value="views" style="rhombus;whiteSpace=wrap;html=1;" vertex="1" parent="WIyWlLk6GJQsqaUBKTNV-1">
          <mxGeometry x="290" y="480" width="60" height="55" as="geometry" />
        </mxCell>
        <mxCell id="Vs8sOGnxgAwdF0Xm_5Ge-290" value="" style="endArrow=none;html=1;rounded=0;" edge="1" parent="WIyWlLk6GJQsqaUBKTNV-1">
          <mxGeometry width="50" height="50" relative="1" as="geometry">
            <mxPoint x="320" y="572.5" as="sourcePoint" />
            <mxPoint x="320" y="535" as="targetPoint" />
          </mxGeometry>
        </mxCell>
        <mxCell id="Vs8sOGnxgAwdF0Xm_5Ge-291" value="&lt;b&gt;Guest&lt;/b&gt;" style="rounded=0;whiteSpace=wrap;html=1;" vertex="1" parent="WIyWlLk6GJQsqaUBKTNV-1">
          <mxGeometry x="275" y="570" width="90" height="30" as="geometry" />
        </mxCell>
        <mxCell id="Vs8sOGnxgAwdF0Xm_5Ge-292" value="M" style="text;html=1;align=center;verticalAlign=middle;whiteSpace=wrap;rounded=0;" vertex="1" parent="WIyWlLk6GJQsqaUBKTNV-1">
          <mxGeometry x="340" y="395" width="60" height="30" as="geometry" />
        </mxCell>
        <mxCell id="Vs8sOGnxgAwdF0Xm_5Ge-293" value="M" style="text;html=1;align=center;verticalAlign=middle;whiteSpace=wrap;rounded=0;" vertex="1" parent="WIyWlLk6GJQsqaUBKTNV-1">
          <mxGeometry x="340" y="535" width="60" height="30" as="geometry" />
        </mxCell>
      </root>
    </mxGraphModel>
  </diagram>
</mxfile>
